<?xml version="1.0" encoding="UTF-8"?><!DOCTYPE svg PUBLIC "-//W3C//DTD SVG 1.1//EN" "http://www.w3.org/Graphics/SVG/1.1/DTD/svg11.dtd"><svg xmlns="http://www.w3.org/2000/svg" xmlns:xlink="http://www.w3.org/1999/xlink"><defs>
        <clipPath id="clip0_1525_4064">
            <path d="M0 0h40v40H0z"/>
        </clipPath>
    
        <clipPath id="clip0_1525_4067">
            <path d="M0 0h40v40H0z"/>
        </clipPath>
    
        <clipPath id="clip0_1525_4066">
            <path d="M0 0h40v40H0z"/>
        </clipPath>
    </defs><symbol id="ico-mono-ic-eye" viewBox="0 0 20 21">
    <path d="M19.956 10.305c-.029-.062-.734-1.54-2.308-3.03C16.186 5.896 13.676 4.25 10 4.25c-3.676 0-6.187 1.646-7.648 3.026C.778 8.764.072 10.24.044 10.306a.458.458 0 000 .39c.029.062.734 1.54 2.308 3.03C3.813 15.104 6.324 16.75 10 16.75c3.676 0 6.186-1.645 7.648-3.025 1.574-1.489 2.28-2.965 2.308-3.029a.46.46 0 000-.39zM10 15.79c-2.66 0-4.981-.916-6.903-2.72A10.867 10.867 0 011.075 10.5a10.85 10.85 0 012.022-2.569C5.02 6.127 7.341 5.211 10 5.211c2.66 0 4.981.916 6.903 2.72a10.85 10.85 0 012.022 2.569c-.54.978-3.247 5.289-8.925 5.289zm0-8.975a4.06 4.06 0 00-2.166.621c-.64.405-1.14.981-1.436 1.654a3.5 3.5 0 00-.221 2.13c.15.715.521 1.372 1.066 1.887.546.516 1.24.867 1.996 1.01.757.141 1.54.068 2.253-.21a3.86 3.86 0 001.75-1.358 3.545 3.545 0 00.656-2.048 3.592 3.592 0 00-1.143-2.605A4.02 4.02 0 0010 6.815zm0 6.41a3 3 0 01-1.6-.459 2.763 2.763 0 01-1.062-1.222 2.587 2.587 0 01-.164-1.574 2.682 2.682 0 01.789-1.395c.403-.381.916-.64 1.475-.746a3.036 3.036 0 011.665.155c.526.206.976.555 1.293 1.003.316.448.485.975.485 1.514 0 .723-.303 1.415-.844 1.926-.54.511-1.273.798-2.037.798z"/>
</symbol><symbol id="ico-mono-ic-facebook" viewBox="0 0 40 40">
    <g clip-path="url(#clip0_1525_4064)">
        <path d="M26.663 6.642h3.651V.282C29.684.195 27.517 0 24.994 0c-5.265 0-8.872 3.312-8.872 9.398V15h-5.81v7.11h5.81V40h7.124V22.112h5.575l.885-7.11h-6.462v-4.899c.002-2.055.555-3.461 3.419-3.461z"/>
    </g>
    
</symbol><symbol id="ico-mono-ic-instagram" viewBox="0 0 40 40">
    <g clip-path="url(#clip0_1525_4067)">
        <path d="M27.5 0h-15C5.598 0 0 5.598 0 12.5v15C0 34.403 5.598 40 12.5 40h15C34.403 40 40 34.403 40 27.5v-15C40 5.598 34.403 0 27.5 0zm8.75 27.5c0 4.825-3.925 8.75-8.75 8.75h-15c-4.825 0-8.75-3.925-8.75-8.75v-15c0-4.825 3.925-8.75 8.75-8.75h15c4.825 0 8.75 3.925 8.75 8.75v15z"/>
        <path d="M19.999 10c-5.522 0-10 4.478-10 10 0 5.523 4.477 10 10 10s10-4.477 10-10c0-5.522-4.477-10-10-10zm0 16.25a6.259 6.259 0 01-6.25-6.25 6.257 6.257 0 016.25-6.25 6.257 6.257 0 016.25 6.25 6.259 6.259 0 01-6.25 6.25z"/>
        <path d="M30.75 10.582a1.333 1.333 0 100-2.665 1.333 1.333 0 000 2.665z"/>
    </g>
    
</symbol><symbol id="ico-mono-ic-menu" viewBox="0 0 40 40">
    <path d="M3.055 11.896h33.89M3.056 28.103h33.89M3.055 20H20" stroke-width="2"/>
</symbol><symbol id="ico-mono-ic-outline-access-time" viewBox="0 0 24 24">
    <path d="M11.99 2C6.47 2 2 6.48 2 12s4.47 10 9.99 10C17.52 22 22 17.52 22 12S17.52 2 11.99 2zM12 20c-4.42 0-8-3.58-8-8s3.58-8 8-8 8 3.58 8 8-3.58 8-8 8zm.5-13H11v6l5.25 3.15.75-1.23-4.5-2.67V7z"/>
</symbol><symbol id="ico-mono-ic-quote-bottom" viewBox="0 0 58 66">
    <path d="M17.2 12l4.34 3.22c-1.027 1.213-2.147 3.08-3.36 5.6-1.12 2.427-2.053 5.087-2.8 7.98-.747 2.893-1.027 5.74-.84 8.54a21.877 21.877 0 011.68-.42c.56-.187 1.12-.28 1.68-.28 2.053 0 3.78.7 5.18 2.1 1.493 1.307 2.24 3.173 2.24 5.6 0 2.707-.793 4.9-2.38 6.58-1.587 1.587-3.593 2.38-6.02 2.38-3.547 0-6.253-1.307-8.12-3.92C6.933 46.767 6 43.593 6 39.86c0-2.613.42-5.553 1.26-8.82.933-3.36 2.24-6.72 3.92-10.08 1.68-3.453 3.687-6.44 6.02-8.96zm25.76 0l4.34 3.22c-1.027 1.213-2.147 3.08-3.36 5.6-1.12 2.427-2.053 5.087-2.8 7.98-.747 2.893-1.027 5.74-.84 8.54a21.877 21.877 0 011.68-.42c.56-.187 1.12-.28 1.68-.28 2.053 0 3.78.7 5.18 2.1 1.493 1.307 2.24 3.173 2.24 5.6 0 2.707-.793 4.9-2.38 6.58-1.587 1.587-3.593 2.38-6.02 2.38-3.547 0-6.253-1.307-8.12-3.92-1.867-2.613-2.8-5.787-2.8-9.52 0-2.613.42-5.553 1.26-8.82.933-3.36 2.24-6.72 3.92-10.08 1.68-3.453 3.687-6.44 6.02-8.96z"/>
</symbol><symbol id="ico-mono-ic-quote-top" viewBox="0 0 58 66">
    <path d="M39.96 53.3l-4.34-3.22c1.027-1.213 2.147-3.08 3.36-5.6 1.12-2.427 2.053-5.087 2.8-7.98.747-2.893 1.027-5.74.84-8.54a21.9 21.9 0 01-1.68.42c-.56.187-1.12.28-1.68.28-2.053 0-3.78-.7-5.18-2.1-1.493-1.307-2.24-3.173-2.24-5.6 0-2.707.793-4.9 2.38-6.58 1.587-1.587 3.593-2.38 6.02-2.38 3.547 0 6.253 1.307 8.12 3.92 1.867 2.613 2.8 5.787 2.8 9.52 0 2.613-.42 5.553-1.26 8.82-.933 3.36-2.24 6.72-3.92 10.08-1.68 3.453-3.686 6.44-6.02 8.96zm-25.76 0l-4.34-3.22c1.027-1.213 2.147-3.08 3.36-5.6 1.12-2.427 2.053-5.087 2.8-7.98.747-2.893 1.027-5.74.84-8.54a21.9 21.9 0 01-1.68.42c-.56.187-1.12.28-1.68.28-2.053 0-3.78-.7-5.18-2.1-1.493-1.307-2.24-3.173-2.24-5.6 0-2.707.793-4.9 2.38-6.58 1.587-1.587 3.593-2.38 6.02-2.38 3.547 0 6.253 1.307 8.12 3.92 1.867 2.613 2.8 5.787 2.8 9.52 0 2.613-.42 5.553-1.26 8.82-.933 3.36-2.24 6.72-3.92 10.08-1.68 3.453-3.686 6.44-6.02 8.96z"/>
</symbol><symbol id="ico-mono-ic-search" viewBox="0 0 32 32">
    <path d="M31.805 29.92l-9.296-9.297a12.601 12.601 0 002.824-7.956C25.333 5.682 19.651 0 12.667 0 5.682 0 0 5.682 0 12.667c0 6.984 5.682 12.666 12.667 12.666 3.013 0 5.78-1.061 7.957-2.824l9.295 9.296c.26.26.683.26.943 0l.943-.943a.667.667 0 000-.943zm-19.138-7.253c-5.515 0-10-4.486-10-10 0-5.515 4.485-10 10-10 5.514 0 10 4.485 10 10 0 5.514-4.486 10-10 10z"/>
</symbol><symbol id="ico-mono-ic-star" viewBox="0 0 24 25">
    <path fill-rule="evenodd" clip-rule="evenodd" d="M15 9.5l-3-9-3 9H-.5L7 15.25 4 24.5l8-5.5 8 5.5-3-9.25 7.5-5.75H15zm-1.5 3l-1.25-3-1.25 3H8.5l2.25 1.802L9.85 17l2.4-1.604L14.65 17l-.9-2.698L16 12.5h-2.5z"/>
</symbol><symbol id="ico-mono-ic-telegram" viewBox="0 0 40 40">
    <g clip-path="url(#clip0_1525_4066)">
        <path d="M15.695 25.302l-.661 9.306c.946 0 1.356-.406 1.848-.895l4.438-4.242 9.197 6.735c1.687.94 2.875.445 3.33-1.551l6.037-28.287.001-.002c.535-2.493-.901-3.468-2.545-2.856L1.857 17.095c-2.422.94-2.385 2.29-.412 2.902l9.072 2.821L31.589 9.633c.991-.657 1.893-.293 1.151.363L15.695 25.302z"/>
    </g>
    
</symbol><symbol id="ico-mono-ic-university-10" viewBox="0 0 36 36">
    <path d="M31.438 29.206h-.772c-.536-1.341-.536-2.65 0-3.986h.772c.861 0 1.562-.739 1.562-1.647s-.7-1.647-1.562-1.647H28.33c.396-.476.636-1.099.636-1.78v-5.16c0-1.493-1.152-2.707-2.568-2.707h-1.263c.107-.225.168-.48.168-.748 0-.925-.713-1.677-1.589-1.677h-.435c-.387-1.01-.388-1.998 0-3.003h.435c.876 0 1.589-.752 1.589-1.676 0-.924-.713-1.675-1.589-1.675H8.89c-2.539 0-4.604 2.177-4.604 4.852 0 1.294.48 2.512 1.35 3.43.173.182.358.348.552.497h-.34c-.862 0-1.562.739-1.562 1.647s.7 1.647 1.562 1.647h.772c.536 1.335.536 2.644 0 3.986h-.772c-.862 0-1.562.739-1.562 1.647 0 .347.102.67.277.936C3.645 22.555 3 23.516 3 24.633v5.16C3 31.286 4.151 32.5 5.566 32.5h25.872c.861 0 1.562-.739 1.562-1.647s-.7-1.647-1.562-1.647zm0-6.353c.377 0 .683.323.683.72 0 .397-.306.72-.683.72h-7.931a.452.452 0 00-.44.463c0 .256.197.464.44.464h6.215a6.283 6.283 0 00-.316 1.53s-.176.917.317 2.456H6.251c-.069 0-.127-.06-.127-.134v-3.718c0-.073.058-.134.127-.134h4.354v1.521c-.027.456.184.635.313.702.131.068.401.133.733-.187l.007-.006 1.228-1.235 1.229 1.235a.215.215 0 00.006.006c.195.188.368.243.504.243a.502.502 0 00.232-.057c.13-.067.34-.247.31-.702v-1.52h6.176c.243 0 .44-.207.44-.463a.452.452 0 00-.44-.464h-6.175v-1.44h16.27zM7.88 17.103a6.296 6.296 0 00-.318-1.53h18.153c.069 0 .127.061.127.134v3.718c0 .073-.058.134-.127.134H15.17v-1.53h3.076c.243 0 .44-.207.44-.463a.452.452 0 00-.44-.463H7.88zm2.724 2.456H7.56a6.34 6.34 0 00.318-1.53h2.725v1.53zm3.688-1.53l-.003 8.115-1.1-1.105a.423.423 0 00-.606 0l-1.099 1.105-.002-8.115h2.81zM5.164 8.352c0-2.165 1.672-3.925 3.726-3.925h14.824c.392 0 .71.335.71.748s-.319.75-.71.75h-8.1a.452.452 0 00-.44.463c0 .256.196.463.44.463h6.728c-.31.997-.31 2.002.002 3.003H8.89c-.378 0-.736-.157-1.006-.44a1.54 1.54 0 01-.42-1.062c0-.827.64-1.5 1.426-1.5h4.56c.242 0 .439-.208.439-.464a.452.452 0 00-.44-.463H8.89c-1.27 0-2.303 1.089-2.303 2.427 0 .645.24 1.254.676 1.717a2.237 2.237 0 001.628.712h14.824c.392 0 .71.336.71.75 0 .412-.319.748-.71.748H8.89c-.993 0-1.928-.409-2.632-1.152a4.01 4.01 0 01-1.094-2.775zm.684 6.294c-.377 0-.684-.323-.684-.72 0-.397.307-.72.684-.72h20.55c.932 0 1.69.799 1.69 1.78v5.16c0 .982-.758 1.78-1.69 1.78H15.17v-1.44h10.546c.555 0 1.006-.476 1.006-1.06v-3.72c0-.584-.451-1.06-1.006-1.06H5.848zm0 5.84h4.756v1.44H5.848c-.377 0-.683-.323-.683-.72 0-.397.306-.72.683-.72zm25.59 11.087H5.566c-.93 0-1.687-.798-1.687-1.78v-5.16c0-.981.757-1.78 1.687-1.78h5.038v1.44H6.252c-.554 0-1.006.476-1.006 1.06v3.72c0 .584.452 1.06 1.006 1.06h25.187c.377 0 .683.323.683.72 0 .397-.306.72-.683.72z"/>
</symbol><symbol id="ico-mono-ic-university-11" viewBox="0 0 36 36">
    <path d="M33.467 3H2.533a.542.542 0 00-.377.151.51.51 0 00-.156.366v17.586a.51.51 0 00.156.366c.1.097.236.152.377.152h8.534v6.236l-.017-.008-1.517-.63c.305-.43.468-.94.467-1.46v-.518c0-.686-.281-1.343-.781-1.828a2.709 2.709 0 00-1.886-.758c-.707 0-1.385.273-1.885.758a2.547 2.547 0 00-.781 1.828v.518c0 .52.162 1.03.467 1.46l-1.518.63c-.48.2-.889.53-1.176.953-.287.423-.44.918-.44 1.424v2.257a.51.51 0 00.156.366c.1.097.236.151.377.151h28.8a.542.542 0 00.378-.151.51.51 0 00.156-.366v-2.257c0-.506-.153-1.001-.44-1.424a2.646 2.646 0 00-1.177-.953l-1.517-.63c.305-.43.468-.94.467-1.46v-.518c0-.686-.281-1.343-.781-1.828a2.71 2.71 0 00-1.886-.758c-.707 0-1.385.273-1.885.758a2.547 2.547 0 00-.781 1.828v.518c-.001.52.162 1.03.466 1.46l-1.517.63c-.43.179-.803.463-1.083.826a2.653 2.653 0 00-1.082-.826l-1.518-.63c.305-.43.468-.94.467-1.46v-.518a2.52 2.52 0 00-.282-1.156 2.605 2.605 0 00-.785-.911V21.62h14.934a.542.542 0 00.377-.152.51.51 0 00.156-.366V3.517a.51.51 0 00-.156-.365.542.542 0 00-.377-.152zm-8.534 22.241c0-.411.169-.806.469-1.097.3-.29.707-.454 1.131-.454.425 0 .832.163 1.132.454.3.291.468.686.468 1.097v.518c0 .411-.168.806-.468 1.097-.3.29-.707.454-1.132.454-.424 0-.831-.163-1.131-.454a1.528 1.528 0 01-.469-1.097v-.518zm-2.666 4.985c0-.303.091-.6.264-.854.172-.254.417-.453.705-.572l1.95-.81a2.72 2.72 0 002.694 0l1.95.81c.288.12.534.318.706.572.172.253.264.55.264.854v1.74h-1.067v-1.552a.51.51 0 00-.156-.366.542.542 0 00-.754 0 .51.51 0 00-.156.366v1.551H24.4v-1.551a.51.51 0 00-.156-.366.542.542 0 00-.755 0 .51.51 0 00-.156.366v1.551h-1.066v-1.739zm-19.2-9.64v-1.034h5.337c.022.367.14.723.341 1.034H3.067zm7.6 0a1.22 1.22 0 01-.848-.341 1.147 1.147 0 01-.352-.823v-2.168h1.6v1.263a.51.51 0 00.156.366c.1.097.236.152.377.152h2.667v1.551h-3.6zm3.763-12.93h1.97c.141 0 .277.054.377.15a.51.51 0 010 .732.542.542 0 01-.377.152h-2.133a.547.547 0 00-.444.23l-.623.906a1.386 1.386 0 01.463-1.961c.23-.138.496-.21.767-.21zm1.437 2.068v1.681a.383.383 0 01-.118.274.407.407 0 01-.282.114h-.134a.542.542 0 00-.377.152.51.51 0 00-.156.365v.518h-1.067v-1.913l.82-1.19h1.314zM18 13.862a.544.544 0 00.313-.099L19 13.28l1.168 1.203-.706.586a.532.532 0 00-.395-.171h-5.334a.542.542 0 00-.377.151.51.51 0 00-.156.366V18h-1.067v-1.264a.51.51 0 00-.156-.365.542.542 0 00-.377-.152H9.467v-.676c0-.446.183-.873.508-1.188a1.763 1.763 0 011.225-.493H18zm9.067-4.87l-1.334 1.294-.579-.562 1.223-1.186a.515.515 0 00.156-.366.502.502 0 00-.156-.365.535.535 0 00-.377-.152.548.548 0 00-.377.152l-1.214 1.176a3.062 3.062 0 01.825-1.862 3.234 3.234 0 011.833-.974v2.846zm.91.58a.515.515 0 00.156-.365v-3.06c.79.13 1.502.544 1.993 1.159.491.614.727 1.386.66 2.16a3.07 3.07 0 01-1.022 2.024c-.59.527-1.362.82-2.164.82a3.24 3.24 0 01-1.854-.574l2.231-2.163zm-3.295 1.157l-3.703 3.08-1.11-1.143 3.943-2.78.87.843zm-7.215 11.978c-.173-.034-5.334-.052-5.334-.052v-1.034H14.8a.542.542 0 00.377-.152.51.51 0 00.156-.366V20.07h2.134v2.638zm1.066 2.534v.518c0 .411-.168.806-.468 1.097-.3.29-.707.454-1.132.454-.424 0-.831-.163-1.131-.454a1.528 1.528 0 01-.469-1.097v-.518c0-.411.169-.806.469-1.097.3-.29.707-.454 1.131-.454.425 0 .832.163 1.132.454.3.291.468.686.468 1.097zm-2.666-6.206h-.534v-.518a.51.51 0 00-.156-.366A.542.542 0 0014.8 18h-.533v-2.069h1.6v3.104zM5.733 25.24c0-.411.169-.806.469-1.097.3-.29.707-.454 1.131-.454.425 0 .832.163 1.132.454.3.291.468.686.468 1.097v.518c0 .411-.168.806-.468 1.097-.3.29-.707.454-1.132.454-.424 0-.831-.163-1.131-.454a1.529 1.529 0 01-.469-1.097v-.518zm5.867 6.724h-1.067v-1.551a.51.51 0 00-.156-.366.542.542 0 00-.754 0 .51.51 0 00-.156.366v1.551H5.2v-1.551a.51.51 0 00-.156-.366.542.542 0 00-.754 0 .51.51 0 00-.157.366v1.551H3.067v-1.739c0-.303.091-.6.264-.854.172-.254.417-.453.705-.572l1.95-.81a2.721 2.721 0 002.694 0l1.95.81c.288.12.534.318.706.572.172.253.264.55.264.854v1.74zm.533-3.29l-.002-.003a.52.52 0 00.002-.052v-4.93h2.669a2.521 2.521 0 00-.535 1.551v.518c-.001.52.162 1.03.466 1.46l-1.517.63c-.43.179-.803.463-1.083.826zm8.097.125c.288.12.534.318.706.572.172.253.264.55.264.854v1.74h-1.067v-1.552a.51.51 0 00-.156-.366.542.542 0 00-.754 0 .51.51 0 00-.156.366v1.551H14.8v-1.551a.51.51 0 00-.156-.366.542.542 0 00-.755 0 .51.51 0 00-.156.366v1.551h-1.066v-1.739c0-.303.091-.6.264-.854.172-.254.418-.453.705-.572l1.95-.81a2.72 2.72 0 002.694 0l1.95.81zm-3.297-9.765V15.93h1.6v3.104h-1.6zm16 1.551h-14.4v-.517h.534a.542.542 0 00.377-.151.51.51 0 00.156-.366h13.333v1.034zm0-2.069H19.6v-2.2l4.978-4.139c.047.041.1.073.159.096a4.334 4.334 0 002.595 1.063c.964.059 1.92-.201 2.712-.738a4.146 4.146 0 001.648-2.216 4.021 4.021 0 00-.136-2.73 4.18 4.18 0 00-1.86-2.051 4.38 4.38 0 00-2.773-.48 4.307 4.307 0 00-2.478 1.3 4.077 4.077 0 00-1.102 2.514l-5.516 3.892h-1.96v-.054a1.47 1.47 0 00.77-.511c.192-.247.296-.548.296-.858v-1.77a1.59 1.59 0 00.847-.678c.19-.315.26-.686.196-1.047a1.542 1.542 0 00-.545-.924 1.63 1.63 0 00-1.031-.365h-1.97a2.568 2.568 0 00-1.328.363c-.399.24-.72.582-.93.99a2.39 2.39 0 00.158 2.452l.337.49v1.912H11.2c-.742 0-1.454.287-1.979.796-.525.509-.82 1.2-.821 1.92v2.973H3.067V4.034h29.866v14.483z"/>
    <path d="M25.467 15.414H26a.542.542 0 00.377-.152.51.51 0 000-.731.542.542 0 00-.377-.152h-.533a.542.542 0 00-.377.152.51.51 0 000 .731c.1.097.235.152.377.152z"/>
    <path d="M30.8 14.38h-2.667a.542.542 0 00-.377.15.51.51 0 000 .732c.1.097.236.152.377.152H30.8a.542.542 0 00.377-.152.51.51 0 000-.731.542.542 0 00-.377-.152z"/>
    <path d="M29.733 16.448h-4.266a.542.542 0 00-.377.152.51.51 0 000 .731c.1.097.235.152.377.152h4.266a.542.542 0 00.377-.152.51.51 0 000-.731.542.542 0 00-.377-.152z"/>
</symbol><symbol id="ico-mono-ic-university-12" viewBox="0 0 36 36">
    <path d="M32.204 15.553l-2.04-.427A12.263 12.263 0 0028.951 12l.926-.926c.005-.005.006-.011.011-.016a.501.501 0 00.09-.133v-.007l.006-.012 2.923-6.491a1 1 0 00-1.322-1.325l-6.49 2.922-.015.006-.006.003c-.008.003-.014.012-.024.017a.493.493 0 00-.125.083l-.926.93a12.259 12.259 0 00-3.126-1.212l-.424-2.043A1.004 1.004 0 0019.469 3h-2.938a1.004 1.004 0 00-.978.796l-.427 2.04a12.196 12.196 0 00-3.693 1.533L9.689 6.224a1.006 1.006 0 00-1.256.13l-2.08 2.08a1.005 1.005 0 00-.128 1.256l1.144 1.743a12.196 12.196 0 00-1.534 3.693l-2.039.427a1.004 1.004 0 00-.796.979v2.937c0 .474.332.883.796.981l2.04.426c.203.86.497 1.694.88 2.49-.327.042-.631.189-.866.419l-.704.706a1.478 1.478 0 00-.288 1.7l-1.126 1.127a2.503 2.503 0 000 3.535l1.414 1.415a2.503 2.503 0 003.536 0l1.125-1.126c.57.279 1.254.164 1.7-.287l.714-.709c.23-.234.376-.537.416-.863.796.383 1.63.678 2.49.88l.426 2.04c.098.464.506.795.979.797h2.937c.474 0 .883-.332.981-.796l.426-2.04a12.195 12.195 0 003.694-1.533l1.743 1.145c.397.257.92.203 1.256-.13l2.08-2.08c.333-.336.386-.859.129-1.255l-1.145-1.744a12.186 12.186 0 001.534-3.693l2.04-.427c.461-.098.791-.506.793-.978v-2.938a1.004 1.004 0 00-.796-.978zM26.5 18a8.51 8.51 0 01-8.5 8.5 8.344 8.344 0 01-3.66-.831 8.5 8.5 0 01-4.01-4.012A8.349 8.349 0 019.5 18 8.51 8.51 0 0118 9.5a8.36 8.36 0 012.994.555l-2.473 2.472A5.415 5.415 0 0018 12.5a5.506 5.506 0 00-5.446 6.275A5.506 5.506 0 0018 23.5a5.506 5.506 0 005.5-5.5c0-.182-.011-.353-.027-.52l2.472-2.473c.367.955.555 1.97.555 2.993zM25.28 7.183L26.695 8.6 14.486 20.807a4.434 4.434 0 01-.9-1.934L25.28 7.183zm3.887-1.906c.21.297.445.576.7.836.266.261.555.5.862.713l-1.364 3.027-3.218-3.218 3.02-1.358zM13.526 17.52a4.508 4.508 0 013.995-3.995l-3.995 3.995zm8.95.958a4.508 4.508 0 01-3.996 3.995l3.996-3.995zm-5.35 3.933a4.426 4.426 0 01-1.933-.9L27.4 9.305l1.416 1.415-11.69 11.691zM32 4.003L31.144 5.9a5.66 5.66 0 01-.57-.494 5.895 5.895 0 01-.48-.547L32 4.003zM5.855 25.2l.7-.707a.5.5 0 01.71 0l.092.091-1.117 1.703-.387-.387a.496.496 0 010-.703l.002.003zm2.12 6.36a1.5 1.5 0 01-2.122 0L4.44 30.148a1.5 1.5 0 010-2.122l1.061-1.06L9.036 30.5l-1.061 1.06zm3.538-2.12l-.713.706a.507.507 0 01-.703 0l-.386-.386 1.708-1.118.091.091a.5.5 0 01.003.707zM32 19.469l-2.357.492a.5.5 0 00-.387.389 11.19 11.19 0 01-1.639 3.944.5.5 0 000 .55l1.322 2.016-2.079 2.08-2.015-1.323a.5.5 0 00-.55 0 11.19 11.19 0 01-3.945 1.639.5.5 0 00-.389.387L19.47 32h-2.938l-.492-2.357a.5.5 0 00-.388-.387 11.307 11.307 0 01-3.718-1.493 3.872 3.872 0 01-.216-.141.513.513 0 00-.18-.076h-.004a.5.5 0 00-.37.07l-2.02 1.323-2.08-2.08 1.322-2.02a.5.5 0 00-.017-.566h.002c-.045-.067-.09-.133-.15-.23a2.713 2.713 0 01-.12-.2v-.004a11.268 11.268 0 01-1.35-3.486.5.5 0 00-.388-.388L4 19.47v-2.938l2.357-.492a.5.5 0 00.388-.389 11.19 11.19 0 011.638-3.944.5.5 0 000-.55L7.06 9.14l2.08-2.079 2.015 1.322a.5.5 0 00.55 0 11.189 11.189 0 013.944-1.638.5.5 0 00.389-.388L16.53 4h2.938l.492 2.357a.5.5 0 00.388.388c1.014.211 1.994.562 2.913 1.04l-1.497 1.498A9.341 9.341 0 0018 8.5 9.51 9.51 0 008.5 18a9.34 9.34 0 00.928 4.09 9.5 9.5 0 004.48 4.48A9.339 9.339 0 0018 27.5a9.51 9.51 0 009.5-9.5 9.343 9.343 0 00-.783-3.765l1.497-1.497c.48.918.83 1.898 1.042 2.912a.5.5 0 00.387.388l2.357.494v2.937z"/>
</symbol><symbol id="ico-mono-ic-university-13" viewBox="0 0 36 36">
    <path d="M32.194 5.527h-.259V4.51A.513.513 0 0031.42 4h-2.064a.513.513 0 00-.516.51v1.017h-3.097V4.51A.513.513 0 0025.226 4H23.16a.513.513 0 00-.516.51v1.017h-3.097V4.51A.513.513 0 0019.032 4h-2.064a.513.513 0 00-.516.51v1.017h-3.097V4.51A.513.513 0 0012.839 4h-2.065a.513.513 0 00-.516.51v1.017H7.161V4.51A.513.513 0 006.645 4H4.581a.513.513 0 00-.516.51v1.017h-.259A1.796 1.796 0 002 7.31v22.91c.001.983.81 1.78 1.806 1.781h28.388A1.796 1.796 0 0034 30.218V7.31a1.796 1.796 0 00-1.806-1.782zm-2.323-.509h1.032v2.037h-1.032V5.018zm-6.194 0h1.033v2.037h-1.033V5.018zm-6.193 0h1.032v2.037h-1.032V5.018zm-6.194 0h1.033v2.037H11.29V5.018zm-6.193 0h1.032v2.037H5.097V5.018zm27.87 25.2a.77.77 0 01-.773.764H3.805a.77.77 0 01-.774-.764V9.6h29.936v20.618zm0-21.636H3.033V7.309a.77.77 0 01.774-.764h.259v1.019c0 .28.23.509.516.509h2.064a.513.513 0 00.516-.51V6.546h3.097v1.019c0 .28.231.509.516.509h2.065a.513.513 0 00.516-.51V6.546h3.097v1.019c0 .28.23.509.516.509h2.064a.513.513 0 00.516-.51V6.546h3.097v1.019c0 .28.231.509.516.509h2.065a.513.513 0 00.516-.51V6.546h3.097v1.019c0 .28.23.509.516.509h2.064a.513.513 0 00.517-.51V6.546h.258a.77.77 0 01.774.764v1.273z"/>
    <path d="M18 13.673c-3.706 0-6.71 2.963-6.71 6.618 0 3.655 3.004 6.618 6.71 6.618 3.705 0 6.71-2.963 6.71-6.618-.005-3.654-3.006-6.614-6.71-6.618zm0 12.218c-3.136 0-5.678-2.507-5.678-5.6 0-3.093 2.542-5.6 5.678-5.6 3.135 0 5.677 2.507 5.677 5.6-.003 3.091-2.543 5.596-5.677 5.6z"/>
    <path d="M18 13.164a.513.513 0 00.516-.51v-1.018a.513.513 0 00-.516-.509.513.513 0 00-.516.51v1.018c0 .28.23.509.516.509z"/>
    <path d="M18 27.418a.513.513 0 00-.516.51v1.017c0 .282.23.51.516.51a.513.513 0 00.516-.51v-1.018a.513.513 0 00-.516-.509z"/>
    <path d="M26.774 19.782h-1.032a.513.513 0 00-.517.509c0 .281.232.509.517.509h1.032a.513.513 0 00.516-.51.513.513 0 00-.516-.508z"/>
    <path d="M10.258 19.782H9.226a.513.513 0 00-.516.509c0 .281.231.509.516.509h1.032a.513.513 0 00.517-.51.513.513 0 00-.517-.508z"/>
    <path d="M23.839 13.811l-.73.72a.504.504 0 00.02.72c.198.187.51.187.71 0l.73-.72a.504.504 0 00-.008-.72.521.521 0 00-.722 0z"/>
    <path d="M12.16 25.33l-.73.72a.504.504 0 00-.008.72c.2.202.526.205.73.009l.008-.008.73-.72a.504.504 0 00-.019-.72.521.521 0 00-.71 0z"/>
    <path d="M23.84 25.33a.521.521 0 00-.73.02.504.504 0 000 .7l.73.72c.203.197.53.194.73-.008a.504.504 0 000-.711l-.73-.72z"/>
    <path d="M12.16 15.25a.521.521 0 00.73-.018.504.504 0 000-.7l-.73-.72a.521.521 0 00-.73.007.504.504 0 000 .712l.73.72z"/>
</symbol><symbol id="ico-mono-ic-university-14" viewBox="0 0 36 36">
    <path d="M26.535 3H9.465C8.105 3 7 4.154 7 5.572v1.546c0 .243.189.44.421.44a.43.43 0 00.421-.44V5.572c0-.934.728-1.693 1.623-1.693h17.07c.895 0 1.623.76 1.623 1.693v24.856c0 .934-.728 1.693-1.623 1.693H9.465c-.895 0-1.623-.76-1.623-1.693V8.876a.43.43 0 00-.42-.44.43.43 0 00-.422.44v21.552C7 31.846 8.106 33 9.465 33h17.07C27.895 33 29 31.846 29 30.428V5.572C29 4.154 27.894 3 26.535 3z"/>
    <path d="M8.677 6.6v16.6c0 .243.189.44.421.44a.43.43 0 00.421-.44V7.04h16.963v6.025c0 .243.188.44.42.44a.43.43 0 00.422-.44V6.6a.43.43 0 00-.421-.44H9.098a.43.43 0 00-.421.44z"/>
    <path d="M8.677 28.31c0 .242.189.439.421.439h17.805a.43.43 0 00.42-.44V14.822a.43.43 0 00-.42-.44.43.43 0 00-.421.44V27.87H9.519v-2.912a.43.43 0 00-.42-.44.43.43 0 00-.422.44v3.351z"/>
    <path d="M16.718 30.331c0 .738.575 1.338 1.282 1.338.708 0 1.283-.6 1.283-1.338 0-.738-.575-1.338-1.283-1.338-.707 0-1.282.6-1.282 1.338zm1.723 0c0 .253-.198.46-.44.46a.451.451 0 01-.441-.46c0-.253.197-.46.44-.46s.441.207.441.46z"/>
    <path d="M19.82 5.45a.43.43 0 00.42-.44.43.43 0 00-.42-.439H17.9a.43.43 0 00-.421.44c0 .242.188.439.42.439h1.92z"/>
    <path d="M16.293 5.448a.43.43 0 00.42-.44.43.43 0 00-.42-.439.43.43 0 00-.421.44c0 .242.188.439.42.439z"/>
</symbol><symbol id="ico-mono-ic-university-15" viewBox="0 0 36 36">
    <path d="M33.262 13.037C30.627 4.756 21.638.128 13.219 2.72 4.802 5.312.097 14.158 2.732 22.438l1.034-.319C1.31 14.4 5.696 6.154 13.543 3.737A15.036 15.036 0 0124.91 4.739c3.53 1.817 6.128 4.877 7.318 8.616 1.19 3.74.828 7.711-1.019 11.183-1.846 3.473-4.956 6.03-8.757 7.2-6.363 1.959-13.338-.515-16.965-6.017l-.91.58c2.999 4.549 8.131 7.168 13.451 7.168 1.583 0 3.183-.232 4.747-.715 4.077-1.255 7.414-3.998 9.395-7.722a15.405 15.405 0 001.092-11.995z"/>
    <path d="M14.856 9.463l.311-1.021-5.418-1.6a.547.547 0 00-.539.134L8.126 8.042a.528.528 0 00.164.864l4.876 2.133.44-.975-4.155-1.817.297-.292 5.108 1.508z"/>
    <path d="M19.89 6.288a.537.537 0 00-.542-.534h-.001a4.472 4.472 0 00-3.156 1.287l-4.595 4.52-1.87-.46a.548.548 0 00-.515.14l-1.084 1.066a.527.527 0 00.104.834l2.594 1.53 1.556 2.552a.542.542 0 00.464.258.55.55 0 00.384-.155l1.084-1.066a.528.528 0 00.142-.507l-.467-1.837 4.668-4.547a4.36 4.36 0 001.234-3.081zm-6.884 7.083a.527.527 0 00-.145.508l.468 1.84-.376.37-1.269-2.08a.537.537 0 00-.186-.183l-2.114-1.248.376-.37 1.87.46a.548.548 0 00.515-.14l4.811-4.734a3.37 3.37 0 011.807-.925 3.267 3.267 0 01-.88 1.752l-4.877 4.75z"/>
    <path d="M18.783 15.8l-1.626-5.4-1.04.303 1.528 5.074-.329.285-1.806-4.122-.995.422 2.102 4.798a.54.54 0 00.498.322c.13 0 .258-.047.358-.134l1.149-.997a.528.528 0 00.16-.55z"/>
    <path d="M12.32 31.393c-3.858 1.799-6.886 2.031-8.303.637-2.457-2.417.211-9.439 6.205-16.334l-.823-.693C2.824 22.566.295 29.878 3.25 32.784 4.075 33.595 5.24 34 6.686 34c1.686 0 3.751-.55 6.098-1.644l-.464-.963z"/>
    <path d="M30.663 20.428a.544.544 0 00-.478-.281h-1.833l-1.476-2.904a.544.544 0 00-.485-.295h-5.418c-.3 0-.542.24-.542.533v4.265c0 .295.242.533.542.533h1.625v5.864c0 .294.242.533.542.533h2.71a.547.547 0 00.383-.157l2.167-2.132a.527.527 0 00.16-.377v-1.97l2.075-3.065a.526.526 0 00.028-.547zm-3.097 3.154a.53.53 0 00-.091.296v1.912l-1.85 1.82h-1.943v-5.864a.537.537 0 00-.542-.533h-1.626v-3.199h4.542l1.476 2.904c.092.18.28.295.485.295h1.155l-1.606 2.37z"/>
    <path d="M31.04 15.882l-2.011-3.463a.544.544 0 00-.47-.268h-3.252a.545.545 0 00-.45.237l-.923 1.362h-1.336v-2.665h2.71a.545.545 0 00.382-.157L27.7 8.952h2.485V7.886h-2.71a.545.545 0 00-.383.156l-2.008 1.976h-3.027c-.3 0-.542.24-.542.533v3.732c0 .294.242.533.542.533h2.168c.18 0 .35-.09.45-.237l.923-1.362h2.647l2.011 3.463a.543.543 0 00.47.268h2.168v-1.066H31.04z"/>
    <path d="M17.722 21.213h-3.027l-1.467-1.443a.545.545 0 00-.383-.156h-2.709c-.299 0-.542.238-.542.533v3.731c0 .295.243.533.542.533h2.167v5.33a.533.533 0 00.542.534c.115 0 .23-.036.325-.107l2.168-1.599a.53.53 0 00.217-.426v-1.344l2.506-1.971a.53.53 0 00.203-.417v-2.665a.537.537 0 00-.542-.533zm-.542 2.942l-2.506 1.972a.53.53 0 00-.203.417v1.332l-1.084.8v-4.798a.537.537 0 00-.542-.533h-2.167V20.68h1.943l1.467 1.443c.101.1.24.156.383.156h2.709v1.876z"/>
    <path d="M6.807 13.475L5.182 10.81a.543.543 0 00-.464-.258h-.542v1.066h.235l1.25 2.05-1.326 1.304a.527.527 0 00-.16.377v1.6H2.55v1.065h2.167c.3 0 .542-.238.542-.533V15.57l1.467-1.443a.527.527 0 00.081-.652z"/>
    <path d="M18.806 2.556v.65l-1.757.432a.554.554 0 00-.17.074l-1.363.894-2.97-1.46-.485.953 3.251 1.599a.552.552 0 00.543-.034l1.547-1.015 2.077-.51a.535.535 0 00.41-.517V2.556h-1.083z"/>
</symbol><symbol id="ico-mono-ic-university-2" viewBox="0 0 36 36">
    <path d="M18 2C9.178 2 2 9.178 2 18s7.178 16 16 16 16-7.178 16-16S26.822 2 18 2zm0 30.933C9.766 32.933 3.067 26.234 3.067 18S9.766 3.067 18 3.067 32.933 9.766 32.933 18 26.234 32.933 18 32.933z"/>
    <path d="M8.805 8.88l-.766-.758a14.26 14.26 0 00-.958.968l.84.684c.277-.31.575-.61.884-.893z"/>
    <path d="M3.677 16.878l1.102.084a12.211 12.211 0 012.392-6.273l-.903-.608a13.241 13.241 0 00-2.591 6.797z"/>
    <path d="M24.826 7.69c0-.55-.192-1.08-.54-1.489a2.075 2.075 0 00-1.341-.728 2.026 2.026 0 00-1.46.404c-.422.32-.718.793-.83 1.33-.083.391-.15.787-.217 1.181A8.594 8.594 0 0018 8.046V5.96c0-.277-.218-.501-.487-.501a.494.494 0 00-.488.5v5.683a2.69 2.69 0 01-.488 1.545c-.142.2-.31.377-.5.525-.605.47-.95 1.258-.922 2.108l.447 11.812a1.02 1.02 0 01-.06.385.923.923 0 01-.865.617.923.923 0 01-.866-.618 1.025 1.025 0 01-.06-.385l.348-11.814c.028-.847-.317-1.634-.921-2.105a2.5 2.5 0 01-.5-.525 2.688 2.688 0 01-.488-1.546V5.96c0-.276-.219-.5-.488-.5a.494.494 0 00-.488.5v5.263a9.897 9.897 0 00-1.985 3.591 10.283 10.283 0 00-.39 4.14 10.132 10.132 0 001.276 3.934 9.552 9.552 0 002.711 3.015l-.05 1.695c-.009.27.034.538.126.79.091.252.23.481.408.675.177.194.39.348.625.454a1.814 1.814 0 001.485-.002c.235-.105.447-.26.625-.454.177-.194.315-.424.406-.676.092-.252.134-.52.125-.79l-.004-.108a8.63 8.63 0 004.531-.431l-.032.474c-.018.268.016.538.1.793.082.255.213.489.384.689.17.2.378.361.61.475a1.815 1.815 0 002.12-.376c.184-.187.33-.411.43-.66.099-.247.15-.514.15-.783v-3.24c1.568-1.8 2.438-4.157 2.438-6.603 0-2.446-.87-4.802-2.438-6.602V7.69zM12.823 24.655c-1.67-1.407-2.76-3.442-3.04-5.68-.28-2.237.271-4.502 1.538-6.319.202.757.638 1.421 1.238 1.886.346.27.542.734.526 1.242l-.262 8.87zm8.32 1.263a7.534 7.534 0 01-4.651.504l-.403-10.64c-.016-.507.18-.97.526-1.24a3.49 3.49 0 00.703-.736A3.764 3.764 0 0018 11.643V9.075c.77-.003 1.538.11 2.279.336a33.043 33.043 0 00-.329 4.575v5.385a.53.53 0 00.143.364c.091.097.215.151.345.151h1.122l-.418 6.032zm2.707 1.75c0 .259-.097.507-.27.69a.881.881 0 01-1.021.206.925.925 0 01-.308-.228.99.99 0 01-.196-.34 1.028 1.028 0 01-.052-.393l.568-8.194a.542.542 0 00-.129-.389.49.49 0 00-.357-.164h-1.16v-4.87c0-2.205.229-4.403.681-6.556.061-.289.22-.544.448-.716a1.09 1.09 0 011.507.175c.186.22.29.506.29.801v19.978zm2.438-9.843c0 1.77-.51 3.498-1.462 4.953v-9.905a9.041 9.041 0 011.462 4.952z"/>
    <path d="M12.947 6.027a.56.56 0 01.553-.568.56.56 0 01.553.568v4.653a.56.56 0 01-.553.567.56.56 0 01-.553-.567V6.027z"/>
    <path d="M14.923 6.027a.56.56 0 01.553-.568.56.56 0 01.552.568v4.653a.56.56 0 01-.552.567.56.56 0 01-.553-.567V6.027z"/>
</symbol><symbol id="ico-mono-ic-university-3" viewBox="0 0 36 36">
    <path d="M28.526 1h-3.954a1.01 1.01 0 00-.709.291l-5.75 5.625a.16.16 0 01-.226 0l-5.75-5.625a1.01 1.01 0 00-.71-.291H7.476a.974.974 0 00-.961.983v8.307c0 .4-.171.78-.469 1.042l-.236.208A2.392 2.392 0 005 13.34v1.444c0 .276.219.5.489.5s.488-.224.488-.5v-1.445c0-.4.17-.78.468-1.042l.237-.208a2.392 2.392 0 00.809-1.8V2h.977l8.733 8.772a1.124 1.124 0 001.598 0l8.733-8.772h.977v2.43c0 .276.22.5.489.5.27 0 .489-.224.489-.5V1.983A.973.973 0 0028.526 1zM18.114 10.06a.16.16 0 01-.228 0l-8.024-8.06h1.435c.097 0 .189.038.259.106l5.656 5.533a1.12 1.12 0 001.576 0l5.656-5.533a.368.368 0 01.26-.106h1.433l-8.023 8.06z"/>
    <path d="M30.191 11.54l-.236-.208a1.385 1.385 0 01-.468-1.042V7.56c0-.277-.22-.5-.49-.5a.494.494 0 00-.488.5v2.73c0 .692.295 1.348.809 1.8l.237.207c.297.261.468.641.468 1.042v17.892H5.977V17.947c0-.276-.219-.5-.488-.5a.494.494 0 00-.489.5v13.45c0 .46.365.833.814.833H6.96v1.938c0 .459.365.832.814.832h20.454a.824.824 0 00.814-.832V32.23h1.145a.824.824 0 00.814-.832V13.339c0-.692-.295-1.348-.809-1.8zM26.045 34v-.628c0-.276-.22-.5-.489-.5a.494.494 0 00-.489.5v.628h-1.541v-.628c0-.276-.219-.5-.489-.5a.494.494 0 00-.488.5v.628h-1.542v-.628c0-.276-.219-.5-.488-.5a.494.494 0 00-.489.5v.628h-1.542v-.628c0-.276-.218-.5-.488-.5a.494.494 0 00-.489.5v.628H15.97v-.628c0-.276-.219-.5-.489-.5a.494.494 0 00-.488.5v.628H13.45v-.628c0-.276-.219-.5-.489-.5a.494.494 0 00-.488.5v.628h-1.542v-.628c0-.276-.218-.5-.488-.5a.494.494 0 00-.489.5v.628h-2.02V32.23h20.129V34h-2.02z"/>
    <path d="M26.743 11.965H22.1c-.4 0-.727.333-.727.743v2.622c0 1.103.579 2.134 1.51 2.69a2.996 2.996 0 003.077 0 3.141 3.141 0 001.51-2.69v-2.622a.736.736 0 00-.727-.743zm-1.276 5.193a2.035 2.035 0 01-2.09 0 2.134 2.134 0 01-1.027-1.828v-2.366h4.143v2.366c0 .75-.393 1.45-1.026 1.828z"/>
</symbol><symbol id="ico-mono-ic-university-4" viewBox="0 0 36 36">
    <path d="M33.252 16.302l1.63-1.764a.427.427 0 00.114-.347L34.24 8.4a.467.467 0 00-.342-.38.531.531 0 00-.52.126l-3.431 3.408-6.27.583c-.274.025-.473.248-.446.497.028.25.273.432.546.406l6.46-.6a.516.516 0 00.316-.144l2.826-2.808.604 4.614-1.447 1.565-2.929 1.801a.442.442 0 00-.218.407l.227 3.059c.017.222.207.4.45.421l2.085.181 1.07 2.481-.489 1.148-1.424-1.733a.522.522 0 00-.476-.176l-2.162.312a.49.49 0 00-.39.291l-.7 1.734-4.044.748c-.27.05-.443.29-.389.535.048.216.256.364.488.364a.544.544 0 00.1-.009l4.315-.798a.487.487 0 00.369-.288l.695-1.722 1.577-.227 1.782 2.168a.52.52 0 00.466.178.492.492 0 00.397-.286l.883-2.075a.417.417 0 000-.33l-1.252-2.907a.494.494 0 00-.416-.286l-1.97-.17-.179-2.413 2.748-1.69a.477.477 0 00.102-.084z"/>
    <path d="M21.35 26.746l-1.65.305-3.932-3.762a.53.53 0 00-.483-.127l-2.853.655-1.279-1.435a.514.514 0 00-.34-.166l-4.779-.415a.53.53 0 00-.382.116.437.437 0 00-.163.336v.956l-1.891 1.763-.62-2.478.803-1.923a.418.418 0 00-.016-.357.486.486 0 00-.294-.236l-1.38-.413 1.676-6.242 3.162-1.764 2.684 1.138c.25.106.545.008.661-.22.116-.227.008-.498-.241-.603l-2.926-1.241a.54.54 0 00-.47.024l-3.565 1.99a.46.46 0 00-.224.279l-1.834 6.832c-.062.23.082.466.329.54l1.321.395-.67 1.606a.416.416 0 00-.02.262l.856 3.425c.04.162.175.291.35.336.175.045.364 0 .491-.12l2.672-2.49a.434.434 0 00.142-.317v-.642l4.026.35 1.348 1.512c.123.137.32.197.509.154l2.879-.662 3.922 3.752a.523.523 0 00.46.132l1.92-.355c.27-.05.443-.29.389-.535-.055-.246-.317-.405-.587-.355z"/>
    <path d="M21.806 10.882c-2.445 0-3.633-.26-4.891-.536-1.175-.257-2.387-.522-4.626-.556V9.27c0-.25-.223-.454-.498-.454s-.498.203-.498.454v10.51c0 .251.223.455.498.455s.498-.204.498-.455v-2.266c2.114.033 3.224.276 4.393.531 1.26.276 2.561.56 5.124.56.275 0 .498-.203.498-.453v-6.817c0-.251-.223-.454-.498-.454zm-5.124.348c1.175.257 2.387.522 4.626.556v1.384c-2.115-.033-3.224-.276-4.393-.532-1.175-.257-2.387-.522-4.626-.557v-1.383c2.114.033 3.224.276 4.393.532zm.233 5.933c-1.175-.257-2.387-.522-4.626-.556v-1.378c2.114.033 3.224.276 4.393.532l.496.107a.546.546 0 00.113.012.491.491 0 00.484-.352c.063-.244-.104-.488-.372-.545-.165-.035-.327-.07-.488-.106-1.175-.257-2.387-.522-4.626-.557v-1.33c2.114.033 3.224.275 4.393.531 1.175.257 2.387.523 4.626.557v1.33a22.83 22.83 0 01-1.748-.089c-.275-.025-.518.157-.546.406-.028.25.171.473.445.498.572.053 1.18.084 1.849.094v1.378c-2.115-.033-3.224-.276-4.393-.532z"/>
</symbol><symbol id="ico-mono-ic-university-5" viewBox="0 0 36 36">
    <path d="M22.645 28.323a.516.516 0 111.032 0v3.096a.516.516 0 01-1.032 0v-3.096z"/>
    <path d="M24.71 28.323a.516.516 0 111.032 0v3.096a.516.516 0 11-1.032 0v-3.096z"/>
    <path d="M29.871 20.06V9.225h-1.032V3.97l-1.032.172v-.595a.516.516 0 00-1.033 0v.767l-1.032.172v-1.97a.516.516 0 10-1.032 0V4.66l-1.033.171V3.548a.516.516 0 00-1.032 0v1.455l-1.032.172v4.05H20.58v5.162h-4.13V7.161h-2.064V4.065h-1.032V2H8.194v2.065H7.16V7.16H5.097v9.644a3.617 3.617 0 00-2.023 2.743H2V34h32V19.47l-4.129.59zM22.645 6.05l5.162-.86v4.036h-5.162V6.05zm-1.032 4.208h7.226v9.949l-3.097.442v2.685l-.814-1.086a.918.918 0 00-1.469 0l-.814 1.086v-8.947h-1.032v-4.129zm0 6.194h-7.226v-1.033h7.226v1.033zm0 10.322h5.161v6.194h-5.161v-6.194zm.516-1.032l1.33-1.774a.918.918 0 011.469 0l1.33 1.774H22.13zM9.226 3.032h3.097v1.033H9.226V3.032zM8.194 5.097h5.16V7.16h-5.16V5.097zM6.129 8.194h9.29v6.193h-2.064v2.418a3.59 3.59 0 00-1.549-.353h-5.16a3.62 3.62 0 00-.517.04V8.195zm.516 9.29h5.162c1.245 0 2.288.888 2.528 2.064H4.117a2.585 2.585 0 012.528-2.064zm8.774 3.097v1.032H3.032V20.58H15.42zm-2.064 9.29H11.29v-2.064h2.065v2.064zm-3.097 0H8.194v-2.064h2.064v2.064zm0 1.032v2.065H8.194v-2.065h2.064zm1.032 0h2.065v2.065H11.29v-2.065zm2.065-4.129H11.29V24.71h2.065v2.064zm-3.097 0H8.194V24.71h2.064v2.064zm-3.097 0H5.097V24.71H7.16v2.064zm-2.064 1.032H7.16v2.065H5.097v-2.064zm0 3.097H7.16v2.065H5.097v-2.065zm9.29 2.065v-9.29H4.065v9.29H3.032V22.645H15.42v10.323h-1.032zm.991-13.42a3.6 3.6 0 00-.99-2.007v-.057h7.225v7.226l-1.032 1.376v6.882h-4.13v-13.42h-1.073zm17.59 13.42h-5.162v-6.882l-1.032-1.376v-3.166l6.194-.884v12.308z"/>
    <path d="M17.484 19.032a.516.516 0 111.032 0 .516.516 0 01-1.032 0z"/>
    <path d="M17.484 31.42a.516.516 0 111.032 0 .516.516 0 01-1.032 0z"/>
    <path d="M17.484 21.097a.516.516 0 111.032 0 .516.516 0 01-1.032 0z"/>
    <path d="M17.484 29.355a.516.516 0 111.032 0 .516.516 0 01-1.032 0z"/>
    <path d="M17.484 25.226a.516.516 0 111.032 0 .516.516 0 01-1.032 0z"/>
    <path d="M17.484 23.161a.516.516 0 111.032 0 .516.516 0 01-1.032 0z"/>
    <path d="M17.484 27.29a.516.516 0 111.032 0 .516.516 0 01-1.032 0z"/>
    <path d="M19.548 23.161a.516.516 0 111.033 0 .516.516 0 01-1.033 0z"/>
    <path d="M19.548 21.097a.516.516 0 111.033 0 .516.516 0 01-1.033 0z"/>
    <path d="M19.548 19.032a.516.516 0 111.033 0 .516.516 0 01-1.033 0z"/>
    <path d="M30.903 31.42a.516.516 0 111.033 0 .516.516 0 01-1.033 0z"/>
    <path d="M30.903 27.29a.516.516 0 111.033 0 .516.516 0 01-1.033 0z"/>
    <path d="M30.903 29.355a.516.516 0 111.033 0 .516.516 0 01-1.033 0z"/>
    <path d="M30.903 25.226a.516.516 0 111.033 0 .516.516 0 01-1.033 0z"/>
    <path d="M30.903 23.161a.516.516 0 111.032 0 .516.516 0 01-1.032 0z"/>
    <path d="M28.839 29.355a.516.516 0 111.032 0 .516.516 0 01-1.032 0z"/>
    <path d="M28.839 23.161a.516.516 0 111.032 0 .516.516 0 01-1.032 0z"/>
    <path d="M28.839 27.29a.516.516 0 111.032 0 .516.516 0 01-1.032 0z"/>
    <path d="M28.839 31.42a.516.516 0 111.032 0 .516.516 0 01-1.032 0z"/>
    <path d="M28.839 25.226a.516.516 0 111.032 0 .516.516 0 01-1.032 0z"/>
    <path d="M13.355 9.742a.516.516 0 111.032 0 .516.516 0 01-1.032 0z"/>
    <path d="M11.29 9.742a.516.516 0 111.033 0 .516.516 0 01-1.033 0z"/>
    <path d="M7.161 9.742a.516.516 0 111.033 0 .516.516 0 01-1.033 0z"/>
    <path d="M9.226 9.742a.516.516 0 111.032 0 .516.516 0 01-1.032 0z"/>
    <path d="M9.226 11.806a.516.516 0 111.032 0 .516.516 0 01-1.032 0z"/>
    <path d="M13.355 11.806a.516.516 0 111.032 0 .516.516 0 01-1.032 0z"/>
    <path d="M7.161 11.806a.516.516 0 111.033 0 .516.516 0 01-1.033 0z"/>
    <path d="M11.29 11.806a.516.516 0 111.033 0 .516.516 0 01-1.033 0z"/>
    <path d="M7.161 13.871a.516.516 0 111.033 0 .516.516 0 01-1.033 0z"/>
    <path d="M9.226 13.871a.516.516 0 111.032 0 .516.516 0 01-1.032 0z"/>
    <path d="M11.29 13.871a.516.516 0 111.033 0 .516.516 0 01-1.033 0z"/>
    <path d="M26.774 11.806a.516.516 0 111.033 0 .516.516 0 01-1.033 0z"/>
    <path d="M24.71 11.806a.516.516 0 111.032 0 .516.516 0 01-1.032 0z"/>
    <path d="M22.645 11.806a.516.516 0 111.032 0 .516.516 0 01-1.032 0z"/>
    <path d="M26.774 13.871a.516.516 0 111.033 0 .516.516 0 01-1.033 0z"/>
    <path d="M22.645 13.871a.516.516 0 111.032 0 .516.516 0 01-1.032 0z"/>
    <path d="M24.71 13.871a.516.516 0 111.032 0 .516.516 0 01-1.032 0z"/>
    <path d="M24.71 20.064a.516.516 0 111.032 0 .516.516 0 01-1.032 0z"/>
    <path d="M24.71 18a.516.516 0 111.032 0 .516.516 0 01-1.032 0z"/>
    <path d="M24.71 15.935a.516.516 0 111.032 0 .516.516 0 01-1.032 0z"/>
    <path d="M26.774 18a.516.516 0 111.032 0 .516.516 0 01-1.032 0z"/>
    <path d="M26.774 15.935a.516.516 0 111.032 0 .516.516 0 01-1.032 0z"/>
</symbol><symbol id="ico-mono-ic-university-6" viewBox="0 0 36 36">
    <path d="M32.5 7.677H31V6.645a.525.525 0 00-.146-.365.492.492 0 00-.354-.151H29v-.516a3.677 3.677 0 00-1.026-2.554A3.45 3.45 0 0025.5 2h-15a3.45 3.45 0 00-2.474 1.06A3.677 3.677 0 007 5.612v.516H5.5a.492.492 0 00-.354.151.525.525 0 00-.146.365v1.032H3.5a.492.492 0 00-.354.152.525.525 0 00-.146.365V20.58c0 .273.105.536.293.73a.985.985 0 00.707.302h1c.265 0 .52-.109.707-.302A1.05 1.05 0 006 20.58v-8.774a.525.525 0 00-.146-.366.492.492 0 00-.354-.15H4V8.71h1v1.032c0 .137.053.268.146.365.094.097.221.151.354.151H7v18.065c0 .594.2 1.17.564 1.631.365.46.872.778 1.436.898v2.116c0 .273.105.536.293.73A.985.985 0 0010 34h3c.265 0 .52-.109.707-.302a1.05 1.05 0 00.293-.73v-2.065h8v2.065c0 .273.105.536.293.73A.985.985 0 0023 34h3c.265 0 .52-.109.707-.302a1.05 1.05 0 00.293-.73v-2.116a2.492 2.492 0 001.436-.898c.364-.46.563-1.037.564-1.631V10.258h1.5c.133 0 .26-.054.354-.151A.525.525 0 0031 9.742V8.71h1v2.58h-1.5a.492.492 0 00-.354.152.525.525 0 00-.146.364v8.775c0 .273.105.536.293.73a.985.985 0 00.707.302h1c.265 0 .52-.109.707-.302a1.05 1.05 0 00.293-.73V8.194a.525.525 0 00-.146-.365.492.492 0 00-.354-.152zM5 12.323v8.258H4v-8.258h1zm16.026 13.92l-.006.015h-6.04l-.006-.015-.591-1.017h7.234l-.591 1.017zM8 24.755l4.95.425a.49.49 0 01.387.249l.78 1.345H8v-2.02zm14.665.674a.508.508 0 01.387-.249l4.95-.425v2.02h-6.118l.781-1.346zM28 23.72l-5.031.432a1.52 1.52 0 00-.2.043h-9.54a1.52 1.52 0 00-.2-.043L8 23.72v-2.82l.643.332c.486.25 1.022.381 1.565.382h.024a.281.281 0 00.076.385l.18.123a.504.504 0 00.708-.14l.238-.368h14.358c.543 0 1.079-.131 1.565-.381L28 20.9v2.819zm0-3.975l-1.09.563c-.348.18-.73.273-1.118.274H12.1l.667-1.033h11.717a.516.516 0 000-1.032H12.5a.489.489 0 00-.416.23L10.9 20.58h-.692c-.388-.001-.77-.094-1.117-.273L8 19.745V6.13h20v13.615zM10.5 3.032h15c.576.001 1.134.207 1.58.583.447.376.754.9.87 1.482H8.05a2.6 2.6 0 01.87-1.482 2.457 2.457 0 011.58-.583zM6 9.226V7.16h1v2.065H6zm7 23.742h-3v-2.065h3v2.065zm10 0v-2.065h3v2.065h-3zm3.5-3.097h-17c-.398 0-.78-.163-1.06-.453A1.574 1.574 0 018 28.323v-.517h6.117a.966.966 0 00.5-.136c.152-.091.278-.222.364-.38h6.037c.087.158.213.289.365.38.152.09.325.137.5.136H28v.517c0 .41-.158.804-.44 1.095-.28.29-.662.453-1.06.453zM30 9.226h-1V7.16h1v2.065zm2 11.355h-1v-8.258h1v8.258z"/>
</symbol><symbol id="ico-mono-ic-university-7" viewBox="0 0 36 36">
    <path d="M36 19.634c0-1.17-.952-2.121-2.121-2.121-.567 0-1.1.22-1.5.621l-1.992 1.992V4.306a.806.806 0 00-.806-.806h-17.63L7 8.451v23.243c0 .445.36.806.806.806H29.58c.445 0 .806-.36.806-.806v-5.568l4.992-4.992c.4-.4.621-.933.621-1.5zm-11.461 8.127l1.217 1.218-.305.089a.806.806 0 01-1-.994l.088-.313zm2.106.783l-.507-.507 6.678-6.678.508.507-6.679 6.678zm-1.17-1.169l-.507-.508 6.679-6.678.508.508-6.68 6.678zM11.678 5.097v2.275c0 .445-.36.805-.805.805H8.597l3.08-3.08zm17.775 25.662c0 .445-.361.805-.806.805H8.741a.806.806 0 01-.806-.805V9.113h3.872c.445 0 .806-.36.806-.806V4.435h16.033c.445 0 .806.361.806.806v15.82l-5.562 5.562-.802 2.823a.806.806 0 001 .993l2.803-.817 2.56-2.56v3.697zm5.265-10.286l-.732.732-1.677-1.677.732-.732a1.188 1.188 0 011.677 1.677z"/>
    <path d="M16.823 23.145a.468.468 0 00-.661.032l-1.699 1.868a3.265 3.265 0 00-2.318-.964 3.279 3.279 0 00-3.274 3.274 3.278 3.278 0 003.274 3.274 3.278 3.278 0 003.274-3.274c0-.558-.14-1.083-.388-1.544l1.823-2.005a.468.468 0 00-.031-.66zm-2.34 4.21c0 1.29-1.048 2.338-2.338 2.338a2.341 2.341 0 01-2.339-2.338c0-1.29 1.05-2.339 2.34-2.339.662 0 1.258.28 1.684.725l-1.5 1.651a.449.449 0 01-.582.072l-.357-.238a.468.468 0 10-.52.778l.827.55c.3.201.703.152.946-.115l1.696-1.866c.087.245.144.506.144.782z"/>
    <path d="M16.823 15.092a.468.468 0 00-.661.032l-1.699 1.868a3.265 3.265 0 00-2.318-.964 3.278 3.278 0 00-3.274 3.274 3.279 3.279 0 003.274 3.274 3.278 3.278 0 003.274-3.274c0-.558-.14-1.083-.388-1.543l1.823-2.006a.468.468 0 00-.031-.66zm-2.34 4.21c0 1.29-1.048 2.339-2.338 2.339a2.341 2.341 0 01-2.339-2.339c0-1.29 1.05-2.338 2.34-2.338.662 0 1.258.28 1.684.724l-1.5 1.652a.449.449 0 01-.582.071l-.357-.238a.468.468 0 00-.52.778l.827.551c.3.2.703.151.946-.116l1.696-1.866c.087.246.144.506.144.782z"/>
    <path d="M27.58 18.936a.468.468 0 11.936 0 .468.468 0 01-.935 0z"/>
    <path d="M17.29 18.936c0-.259.21-.468.468-.468h8.42a.468.468 0 010 .935h-8.42a.468.468 0 01-.468-.467z"/>
    <path d="M17.29 17.064c0-.258.21-.467.468-.467h10.29a.468.468 0 010 .935h-10.29a.468.468 0 01-.468-.468z"/>
    <path d="M17.29 20.806c0-.258.21-.467.468-.467h10.29a.468.468 0 010 .935h-10.29a.468.468 0 01-.468-.468z"/>
    <path d="M17.29 27.355c0-.259.21-.468.468-.468h4.21a.468.468 0 110 .936h-4.21a.468.468 0 01-.468-.468z"/>
    <path d="M17.29 29.226c0-.258.21-.468.468-.468h4.21a.468.468 0 110 .936h-4.21a.468.468 0 01-.468-.468z"/>
    <path d="M17.29 25.484c0-.259.21-.468.468-.468h4.21a.468.468 0 110 .936h-4.21a.468.468 0 01-.468-.468z"/>
    <path d="M15.887 13.79h10.29c1.29 0 2.34-1.049 2.34-2.338V7.71c0-1.29-1.05-2.339-2.34-2.339h-10.29a2.341 2.341 0 00-2.339 2.339v3.742c0 1.29 1.05 2.338 2.34 2.338zm-1.403-6.08c0-.774.63-1.404 1.403-1.404h10.29c.774 0 1.404.63 1.404 1.404v3.742c0 .773-.63 1.403-1.404 1.403h-10.29c-.774 0-1.403-.63-1.403-1.403V7.71z"/>
    <path d="M26.645 8.983a.806.806 0 00-.805-.806h-1.196a.806.806 0 00-.805.806v1.195c0 .445.36.806.805.806h1.196c.445 0 .805-.36.805-.806V8.983zm-.935.598a.468.468 0 11-.936 0 .468.468 0 01.936 0z"/>
    <path d="M22.436 8.983a.806.806 0 00-.806-.806h-1.195a.806.806 0 00-.806.806v1.195c0 .445.36.806.806.806h1.195c.445 0 .806-.36.806-.806V8.983zm-.936.598a.468.468 0 11-.935 0 .468.468 0 01.935 0z"/>
    <path d="M18.226 8.983a.806.806 0 00-.806-.806h-1.195a.806.806 0 00-.806.806v1.195c0 .445.361.806.806.806h1.195c.445 0 .806-.36.806-.806V8.983zm-.936.598a.468.468 0 11-.935 0 .468.468 0 01.935 0z"/>
</symbol><symbol id="ico-mono-ic-university-8" viewBox="0 0 36 36">
    <path d="M15 9.076h-1.675a.91.91 0 00-.91.91v.03h-.997v-.03a.91.91 0 00-.909-.91h-1.6a.91.91 0 00-.909.91v1.41c0 .5.408.91.91.91h1.6a.91.91 0 00.908-.91v-.5h.998v.5c0 .5.408.91.909.91H15a.91.91 0 00.91-.91v-1.41a.91.91 0 00-.91-.91zm-4.462 2.32a.03.03 0 01-.029.029h-1.6a.03.03 0 01-.029-.03V9.986a.03.03 0 01.03-.03h1.6a.03.03 0 01.028.03v1.41zm4.491 0a.03.03 0 01-.029.029h-1.675a.03.03 0 01-.03-.03V9.986a.03.03 0 01.03-.03H15a.03.03 0 01.03.03v1.41z"/>
    <path d="M9.78 10.25h-.06a.44.44 0 000 .881h.06a.44.44 0 000-.88z"/>
    <path d="M14.176 10.25h-.059a.44.44 0 000 .881h.059a.44.44 0 000-.88z"/>
    <path d="M13.677 13.01a.44.44 0 00-.616-.088 1.92 1.92 0 01-1.144.381c-.237 0-.701-.05-1.144-.381a.44.44 0 10-.528.704 2.808 2.808 0 001.672.558c.809 0 1.395-.35 1.672-.558a.44.44 0 00.088-.616z"/>
    <path d="M11.976 24.575h-.059a.44.44 0 000 .881h.059a.44.44 0 000-.88z"/>
    <path d="M11.976 26.924h-.059a.44.44 0 000 .88h.059a.44.44 0 000-.88z"/>
    <path d="M11.976 29.272h-.059a.44.44 0 000 .88h.059a.44.44 0 000-.88z"/>
    <path d="M29.703 16.55a.44.44 0 10-.452.756c1.8 1.08 2.876 2.866 2.876 4.774 0 3.189-2.96 5.783-6.6 5.783-3.639 0-6.6-2.594-6.6-5.783 0-1.114.364-2.197 1.052-3.13a.44.44 0 00.046-.443l-1.12-2.468 2.641 1.202a.44.44 0 00.4-.018 7.26 7.26 0 013.581-.925c.608 0 1.21.072 1.788.214a.44.44 0 00.21-.855 8.371 8.371 0 00-1.998-.24c-1.35 0-2.665.321-3.817.931l-3.51-1.596c-.362-.165-.747.235-.582.598l.357.8h-2.046c.923-.351 1.561-1.205 1.561-2.23V12.1c0-.01.014-.018.013-.027l1.2-.777a.434.434 0 00.195-.37V5.29A2.27 2.27 0 0016.61 3H7.224C5.946 3 4.877 4.011 4.877 5.29v5.636c0 .15.091.289.217.37l1.2.777c0 .009-.009.018-.009.027v1.82c0 1.024.697 1.879 1.62 2.23H5.347C4.069 16.15 3 17.163 3 18.44v14.09c0 .243.226.47.47.47h16.895c.243 0 .41-.227.41-.47v-5.287c1.291.938 2.948 1.5 4.738 1.5 4.124 0 7.487-2.989 7.487-6.663 0-2.22-1.228-4.288-3.297-5.53zM6.82 6.736c-.266-.048-.534.163-.534.433v3.857l-.528-.34V5.29c0-.793.674-1.41 1.467-1.41h9.386a1.39 1.39 0 011.408 1.41v5.395l-.528.34V7.168a.433.433 0 00-.504-.433l-5.084.925-5.083-.925zm.346 7.185V7.696l4.659.845a.4.4 0 00.15 0l4.636-.845v6.224c0 .793-.615 1.468-1.408 1.468h-6.57a1.49 1.49 0 01-1.467-1.468zm7.3 3.111l-1.13 2.086-.036-.613.37-1.473h.797zm-1.953.998h-1.19l-.25-.998h1.69l-.25.998zm.028 2.552l-.623 1.158-.625-1.163c.002-.012.003-.01.004-.022l.097-1.644h1.048l.099 1.671zm-2.005-2.085l-.036.629-1.13-2.094h.797l.37 1.465zm9.36 8.066v5.558H3.88V18.44c0-.793.674-1.409 1.467-1.409h3.022l3.16 5.86c.164.303.613.31.776.007l3.16-5.867h2.91l.744 1.625a6.08 6.08 0 00-1.071 3.432c0 1.692.697 3.235 1.868 4.411-.003.022-.02.04-.02.063z"/>
    <path d="M25.527 18a4.2 4.2 0 00-4.194 4.198 4.2 4.2 0 004.194 4.197 4.2 4.2 0 004.195-4.197A4.2 4.2 0 0025.527 18zm0 7.515a3.32 3.32 0 01-3.314-3.317 3.32 3.32 0 013.314-3.317 3.32 3.32 0 013.315 3.317 3.32 3.32 0 01-3.315 3.317z"/>
    <path d="M24.178 21.288h-.058a.44.44 0 000 .88h.058a.44.44 0 000-.88z"/>
    <path d="M26.935 21.288h-.058a.44.44 0 000 .88h.058a.44.44 0 000-.88z"/>
    <path d="M27.288 22.873a.44.44 0 00-.616-.088 1.92 1.92 0 01-1.144.381c-.238 0-.702-.05-1.144-.381a.44.44 0 10-.528.704 2.808 2.808 0 001.672.558c.808 0 1.394-.35 1.672-.558a.44.44 0 00.088-.616z"/>
</symbol><symbol id="ico-mono-ic-university-9" viewBox="0 0 36 36">
    <path d="M2.786 21.942c.175.122.36.229.553.32.231.118.617.315.645.454a.92.92 0 01-.063.54c-.08.17-.163.317-.234.444-.196.345-.523.922-.03 1.325.115.107.314.261.496.4a1.344 1.344 0 00-.174.77.77.77 0 00.313.523c.12.085.249.16.374.232.313.178.436.261.48.426.028.217.008.438-.059.646a5.005 5.005 0 00-.082.419c-.052.486.01.978.18 1.436a1.998 1.998 0 001.89 1.456c.147 0 .293-.015.436-.045a40.418 40.418 0 004.496-1.346c1.201.705 1.96 2.849 2.159 3.654.059.237.272.404.518.404l13.386-.037a.534.534 0 00.507-.694 4.116 4.116 0 00-.54-1.013 4.943 4.943 0 01-.345-.576c-.241-.49-.443-.997-.602-1.518a17.97 17.97 0 01-.631-3.155 9.029 9.029 0 01.7-4.684c.395-.815.88-1.583 1.449-2.29.32-.431.652-.879.95-1.348a8.247 8.247 0 001.099-2.598.533.533 0 00-1.04-.24 7.2 7.2 0 01-.959 2.266c-.277.438-.597.869-.907 1.286a12.888 12.888 0 00-1.57 2.498 10.089 10.089 0 00-.781 5.238c.123 1.133.348 2.252.673 3.345.175.574.396 1.132.661 1.67.122.24.26.473.414.694l.035.053-12.096.036a8.505 8.505 0 00-1.878-3.405l.48-.167c.358-.126.629-.22.768-.267 2.284-.728 3.426-1.768 3.395-3.093a.524.524 0 00-.545-.518.533.533 0 00-.52.546c.013.545-.437 1.344-2.654 2.05-.145.046-.426.144-.795.274-.396.138-.899.314-1.453.502h-.004a41.55 41.55 0 01-4.583 1.387.95.95 0 01-1.099-.71 2.133 2.133 0 01-.132-.945 4.38 4.38 0 01.065-.328c.114-.372.132-.767.054-1.148a1.767 1.767 0 00-.985-1.088l-.115-.066c.058-.117.127-.227.206-.33a.533.533 0 00-.103-.76c-.127-.094-.426-.32-.65-.498.025-.047.053-.098.08-.144.084-.147.18-.32.273-.515.169-.374.218-.79.142-1.194-.128-.65-.751-.969-1.206-1.202a3.082 3.082 0 01-.76-.514c0-.081.087-.277.493-.771a21.517 21.517 0 002.44-3.966c.125-.22.196-.467.206-.72a1.867 1.867 0 00-.782-1.334c-.216-.198-.42-.385-.444-.542.005-.131.035-.26.087-.38.087-.228.188-.452.288-.676a7.83 7.83 0 00.533-1.446c.122-.598.283-1.187.48-1.764a9.143 9.143 0 011.914-3.126c1.02-1.08 2.625-1.844 4.78-2.272a34.656 34.656 0 015.003-.72c.566-.03 1.134-.018 1.698.036a.535.535 0 00.1-1.065 12.972 12.972 0 00-1.854-.037 35.6 35.6 0 00-5.159.74c-2.404.48-4.152 1.324-5.344 2.584a10.201 10.201 0 00-2.14 3.49c-.216.63-.392 1.274-.525 1.927a6.906 6.906 0 01-.458 1.216c-.107.243-.216.486-.312.738-.122.282-.172.59-.146.895.11.477.388.898.78 1.188.262.24.434.408.436.555a.904.904 0 01-.09.231 20.584 20.584 0 01-2.334 3.793c-.386.47-.791 1.02-.707 1.569.114.423.393.783.775 1z"/>
    <path d="M8.368 9.941a7.026 7.026 0 011.464-2.4c.71-.752 1.94-1.306 3.654-1.647a.533.533 0 00-.208-1.046c-1.935.385-3.355 1.044-4.221 1.96a8.085 8.085 0 00-1.69 2.766c-.18.533-.326 1.076-.438 1.627l1.042.231c.102-.504.235-1.002.397-1.49z"/>
    <path d="M19.525 4.987l-.32 1.596a6.345 6.345 0 00-.898.373l-1.354-.906a1.067 1.067 0 00-1.34.139l-.885.885a1.067 1.067 0 00-.14 1.352l.902 1.347c-.148.29-.272.59-.374.899l-1.593.32c-.498.1-.856.538-.856 1.046v1.258c0 .508.357.945.854 1.046l1.595.32c.102.309.226.61.374.898l-.907 1.355c-.277.423-.219.982.14 1.34l.884.885c.36.363.926.422 1.352.14l1.348-.902c.289.147.59.271.898.373l.32 1.593c.1.498.538.857 1.046.856h1.259c.507 0 .944-.356 1.046-.853l.32-1.596c.308-.101.608-.226.898-.373l1.354.907c.423.277.982.219 1.34-.14l.884-.884c.365-.359.424-.926.141-1.352l-.902-1.348c.147-.29.272-.59.373-.898l1.594-.32c.316-.064.586-.269.734-.556l.804.539a.96.96 0 001.199-.133l.709-.71a.969.969 0 00.124-1.213l-.688-1.029c.1-.2.186-.407.258-.62l1.207-.24A.96.96 0 0034 9.435V8.433a.96.96 0 00-.77-.945l-1.213-.241a4.937 4.937 0 00-.257-.62l.699-1.042a.964.964 0 00-.134-1.199l-.709-.709a.968.968 0 00-1.213-.124l-1.029.688c-.2-.1-.408-.186-.62-.258l-.24-1.207A.96.96 0 0027.567 2h-1.002a.96.96 0 00-.945.77l-.241 1.213c-.213.072-.42.158-.62.258l-1.042-.698a.965.965 0 00-1.199.133l-.48.48a1.093 1.093 0 00-.21-.023h-1.258c-.507 0-.944.356-1.046.853zm8.154 2.091l-.25-.25a2.122 2.122 0 01.663 4.005l-.81-.16a6.353 6.353 0 00-.372-.899l.906-1.354c.278-.423.22-.983-.137-1.34v-.002zm-4.464-2.59l1.219.82c.17.114.392.12.57.015.305-.18.633-.317.975-.408a.533.533 0 00.384-.41l.287-1.438h.834l.286 1.44c.04.2.189.358.384.411.343.091.671.228.976.408.178.104.4.097.57-.019l1.219-.818.592.592-.818 1.22a.533.533 0 00-.015.57c.18.305.317.633.408.976a.533.533 0 00.41.384l1.44.286v.834l-1.437.286a.533.533 0 00-.41.384 3.9 3.9 0 01-.408.976.533.533 0 00.015.57l.818 1.22-.592.591-1.189-.795v-.545a1.07 1.07 0 00-.373-.812 3.192 3.192 0 00-2.224-5.492 3.087 3.087 0 00-.949.156c-.26-.038-.526.02-.746.164l-1.347.902a6.354 6.354 0 00-.898-.373l-.32-1.593a1 1 0 00-.037-.126l.376-.376zm-3.028 2.62l.384-1.907h1.259l.383 1.909c.04.198.188.357.384.41.44.118.863.294 1.259.522a.533.533 0 00.564-.018l1.614-1.08.894.89-1.083 1.615a.533.533 0 00-.018.564c.228.396.404.819.523 1.26a.533.533 0 00.41.383l1.907.381v1.26l-1.91.383a.533.533 0 00-.409.383c-.119.441-.294.864-.523 1.26a.533.533 0 00.018.564l1.08 1.614-.89.893-1.615-1.082a.533.533 0 00-.564-.018 5.257 5.257 0 01-1.259.522.533.533 0 00-.383.41l-.382 1.908H20.57l-.383-1.91a.533.533 0 00-.384-.41 5.257 5.257 0 01-1.259-.522.533.533 0 00-.564.018l-1.614 1.08-.894-.89 1.083-1.615a.533.533 0 00.018-.564 5.252 5.252 0 01-.523-1.26.533.533 0 00-.41-.383l-1.907-.382v-1.258l1.91-.384a.533.533 0 00.409-.383c.119-.44.294-.864.523-1.26a.533.533 0 00-.019-.563l-1.08-1.614.89-.894 1.615 1.083c.17.113.389.12.565.018a5.254 5.254 0 011.259-.523.533.533 0 00.381-.41z"/>
    <path d="M21.2 16.4a3.733 3.733 0 100-7.466 3.733 3.733 0 000 7.466zm0-6.4a2.667 2.667 0 110 5.334 2.667 2.667 0 010-5.333z"/>
    <path d="M21.2 13.2a.533.533 0 100-1.066.533.533 0 000 1.066z"/>
    <path d="M6.801 13.734a.533.533 0 100-1.067.533.533 0 000 1.067z"/>
</symbol><symbol id="ico-mono-ic-university" viewBox="0 0 36 36">
    <path d="M33.448 16.939h-7.056v-1.41a.574.574 0 00-.282-.496l-7.558-4.393V8.403h1.495v.85c0 .315.247.57.552.57h4.507a.561.561 0 00.552-.57.586.586 0 00-.033-.194l-.453-1.33.458-1.3a.576.576 0 00-.33-.73.536.536 0 00-.188-.034h-2.053v-.828a.561.561 0 00-.551-.57h-3.956V3.57A.561.561 0 0018 3a.561.561 0 00-.552.57v7.07L9.89 15.027a.574.574 0 00-.282.497v1.41H2.552a.561.561 0 00-.552.57v14.925c0 .316.247.571.552.571h30.896a.561.561 0 00.552-.57V17.51a.561.561 0 00-.552-.571zM23.06 7.833l-.022-.023v-.982h1.258l-.226.73a.588.588 0 000 .394l.26.73H21.15v-.279h1.358a.561.561 0 00.551-.57zm-4.507-2.425h3.404v1.854h-3.404V5.408zm-8.944 26.45H3.103V18.08h6.505v13.779zm7.84 0h-2.896v-6.515h2.896v6.516zm4 0h-2.896v-6.515h2.896v6.516zm3.862 0h-2.758v-7.085a.561.561 0 00-.552-.571h-8a.561.561 0 00-.552.57v7.087H10.69V15.883L18 11.627l7.288 4.233.022 1.644v14.355zm7.587 0h-6.505V18.08h6.505v13.779z"/>
    <path d="M18 13.373c-1.278.003-2.312 1.075-2.312 2.396.003 1.32 1.04 2.388 2.317 2.385 1.277-.003 2.31-1.076 2.307-2.396-.004-1.318-1.038-2.385-2.312-2.385zm0 3.64c-.668-.003-1.206-.565-1.203-1.255.003-.686.54-1.241 1.203-1.244.668.003 1.208.564 1.208 1.255h.006c-.003.69-.547 1.247-1.214 1.244z"/>
    <path d="M5.537 19.335H4.433v2.282h1.104v-2.282z"/>
    <path d="M8.256 19.335H7.153v2.282h1.103v-2.282z"/>
    <path d="M14.574 19.335h-2.207v1.141h2.207v-1.14z"/>
    <path d="M19.104 19.335h-2.207v1.141h2.207v-1.14z"/>
    <path d="M23.633 19.335h-2.207v1.141h2.207v-1.14z"/>
    <path d="M14.574 21.994h-2.207v1.141h2.207v-1.141z"/>
    <path d="M19.104 21.994h-2.207v1.141h2.207v-1.141z"/>
    <path d="M23.633 21.994h-2.207v1.141h2.207v-1.141z"/>
    <path d="M5.537 23.825H4.433v2.283h1.104v-2.283z"/>
    <path d="M8.256 23.825H7.153v2.283h1.103v-2.283z"/>
    <path d="M5.537 28.321H4.433v2.283h1.104V28.32z"/>
    <path d="M8.256 28.321H7.153v2.283h1.103V28.32z"/>
    <path d="M28.847 19.335h-1.104v2.282h1.104v-2.282z"/>
    <path d="M31.567 19.335h-1.104v2.282h1.104v-2.282z"/>
    <path d="M28.847 23.825h-1.104v2.283h1.104v-2.283z"/>
    <path d="M31.567 23.825h-1.104v2.283h1.104v-2.283z"/>
    <path d="M28.847 28.321h-1.104v2.283h1.104V28.32z"/>
    <path d="M31.567 28.321h-1.104v2.283h1.104V28.32z"/>
</symbol><symbol id="ico-mono-ic-whatsapp" viewBox="0 0 40 40">
    <path fill-rule="evenodd" clip-rule="evenodd" d="M33.265 6.68A18.462 18.462 0 0020.12 1.23C9.878 1.23 1.542 9.566 1.538 19.81a18.549 18.549 0 002.48 9.29l-2.636 9.63 9.85-2.584a18.563 18.563 0 008.88 2.262h.008c10.242 0 18.579-8.337 18.582-18.582A18.468 18.468 0 0033.265 6.68zM20.12 35.27h-.006a15.425 15.425 0 01-7.861-2.153l-.564-.335-5.846 1.533 1.56-5.7-.367-.583a15.407 15.407 0 01-2.36-8.22c.002-8.516 6.931-15.444 15.45-15.444a15.34 15.34 0 0110.92 4.53c2.916 2.92 4.52 6.8 4.52 10.927C35.56 28.34 28.632 35.27 20.12 35.27zm8.472-11.568c-.464-.233-2.747-1.355-3.173-1.51-.425-.155-.735-.233-1.044.232-.31.465-1.2 1.51-1.47 1.82-.271.31-.542.35-1.006.116-.465-.232-1.96-.722-3.734-2.304-1.38-1.231-2.312-2.752-2.583-3.216-.27-.465-.003-.692.203-.948.503-.624 1.006-1.278 1.161-1.588.155-.31.077-.581-.039-.813-.116-.233-1.044-2.518-1.431-3.448-.377-.905-.76-.783-1.045-.797-.27-.014-.58-.016-.89-.016-.31 0-.812.116-1.238.58-.426.466-1.625 1.589-1.625 3.874 0 2.286 1.664 4.493 1.896 4.803.232.31 3.274 5 7.932 7.01 1.107.48 1.972.765 2.647.98 1.112.352 2.124.303 2.924.183.892-.133 2.747-1.123 3.134-2.208.387-1.084.387-2.014.27-2.208-.115-.193-.425-.31-.889-.542z"/>
</symbol></svg>